<svg xmlns="http://www.w3.org/2000/svg" viewBox="0 0 16 16" width="16" height="16">
  <circle cx="8" cy="8" r="8" fill="currentColor"/>
  <path fill="#fff" d="M5.8 2.8C4.5 3.2 3.5 4.2 3.2 5.5 2.9 6.8 3.1 8.2 3.8 9.4 4.3 10.2 5.2 10.8 6.2 11.1 7 11.3 7.8 11 8.3 10.3 8.8 9.6 9 8.6 8.9 7.6 8.7 6.2 8.2 5 7.3 4.1 6.6 3.5 5.8 2.8Z"/>
  <path fill="#fff" d="M9.9 4.4C10.5 4.2 11.1 4.5 11.5 5 11.9 5.5 11.9 6.2 11.6 6.7 11.3 7.2 10.7 7.5 10.1 7.6 9.6 7.7 9.1 7.4 8.8 6.9 8.5 6.3 8.6 5.6 8.9 5.1 9.2 4.6 9.5 4.4 9.9 4.4Z"/>
</svg>
